# xmcd
#
# Track frame offsets:
#	150
#	14803
#	28901
#	42583
#	54387
#	66749
#	81454
#	94021
#	118921
#	132922
#	145851
#	162214
#	175829
#	189024
#	208304
#	216984
#	229378
#	244184
#	258803
#	271386
#	288244
#	295231
#
# Disc length: 4106 seconds
#
# Revision: 2
# Processed by: cddbd v1.5.1PL0 Copyright (c) Steve Scherf et al.
# Submitted via: EasyCDDAExtractor 7.5.0.1
#
DISCID=5f100816
DTITLE=Various Artist - Kentucky Mountain Music (Classic Recordings Of The 19
DTITLE=20s and 30s) - Disc 1 
DYEAR=2003
DGENRE=Bluegrass
TTITLE0=Burnett and Rutherford - Ladies On The Steamboat
TTITLE1=Buell Kazee - The Dying Soldier
TTITLE2=Crockett Family Mountaineers - Little Rabbit/Rabbit Where's Your Mammy
TTITLE3=Shortbuckle Roarke and Family - I Truly Understand You Love Another Man
TTITLE4=Ted Gossett's Band - Eighth Of January
TTITLE5=Burnett and Rutherford - All Night Long Blues
TTITLE6=Jimmy Johnson's String Band - Shipping Port
TTITLE7=Robert L. Day - The Rowan County Crew
TTITLE8=Doc Roberts - Deer Walk
TTITLE9=Rutherford and Foster - Let Her Go, I'll Meet Her
TTITLE10=Walter Family - That's My Rabbit, My Dog Caught It
TTITLE11=Martin and Roberts - Lillie Dale
TTITLE12=Rutherford, Moore and Burnett - Cumberland Gap
TTITLE13=James Howard - The Old Fish Song
TTITLE14=Fort Thomas Group - The Red Hill Special
TTITLE15=Green Bailey - If I Die A Railroad Man
TTITLE16=J. W. Day - Grand Hornpipe
TTITLE17=Walter Williams - East Virginia
TTITLE18=Taylor's Kentucky Boys - Forked Deer
TTITLE19=Pete Steele - Pretty Polly
TTITLE20=Justis Begley - Run Banjo
TTITLE21=Kentucky Mountain Chorusters - We'll Understand It Better Bye And Bye
EXTD=
EXTT0=
EXTT1=
EXTT2=
EXTT3=
EXTT4=
EXTT5=
EXTT6=
EXTT7=
EXTT8=
EXTT9=
EXTT10=
EXTT11=
EXTT12=
EXTT13=
EXTT14=
EXTT15=
EXTT16=
EXTT17=
EXTT18=
EXTT19=
EXTT20=
EXTT21=
PLAYORDER=
